<?xml version="1.0" standalone="no"?>
<!DOCTYPE svg PUBLIC "-//W3C//DTD SVG 20010904//EN"
 "http://www.w3.org/TR/2001/REC-SVG-20010904/DTD/svg10.dtd">
<svg version="1.0" xmlns="http://www.w3.org/2000/svg"
 width="700.000000pt" height="700.000000pt" viewBox="0 0 700.000000 700.000000"
 preserveAspectRatio="xMidYMid meet">
<metadata>
Created by potrace 1.14, written by Peter Selinger 2001-2017
</metadata>
<g transform="translate(0.000000,700.000000) scale(0.100000,-0.100000)"
fill="#000000" stroke="none">
<path d="M4418 5576 c-131 -44 -186 -90 -312 -260 -94 -125 -156 -193 -236
-259 l-54 -45 -46 23 c-76 38 -222 68 -299 61 -67 -5 -195 -39 -261 -69 l-36
-16 -115 112 c-74 72 -132 139 -162 187 -60 95 -114 151 -201 208 -110 72
-215 93 -256 52 -25 -25 -25 -46 -1 -86 23 -38 64 -58 193 -95 57 -16 115 -40
135 -55 19 -14 65 -68 103 -120 46 -61 100 -119 159 -167 l88 -74 -56 -54
c-77 -73 -96 -115 -95 -209 0 -83 29 -161 78 -213 31 -34 32 -39 5 -63 -20
-18 -21 -18 -57 26 -20 25 -79 88 -131 141 l-95 96 -12 72 c-13 79 -44 130
-98 162 -18 10 -46 39 -63 63 -50 71 -93 87 -238 91 -136 4 -168 -4 -173 -47
-4 -35 23 -52 115 -73 93 -21 127 -57 171 -179 52 -143 85 -192 154 -227 22
-11 76 -58 121 -103 45 -46 110 -102 145 -125 34 -23 62 -44 62 -46 0 -2 -4
-14 -9 -27 -5 -13 -17 -44 -26 -70 -16 -45 -17 -47 -43 -37 -15 6 -27 10 -27
9 0 -10 -392 88 -600 150 -200 59 -412 126 -790 250 -413 136 -373 124 -540
155 -98 18 -317 24 -415 12 -186 -24 -340 -117 -399 -241 -34 -68 -39 -165
-14 -232 78 -202 359 -439 624 -524 57 -18 67 -25 72 -48 14 -67 175 -183 272
-196 22 -3 41 -5 42 -6 0 0 11 -19 22 -43 36 -75 137 -124 312 -152 57 -9 131
-28 164 -41 158 -67 158 -67 255 -70 115 -3 202 15 290 58 62 30 93 35 156 23
10 -2 30 -4 44 -4 25 -1 25 -1 -10 -34 -86 -80 -160 -136 -223 -170 -37 -20
-114 -68 -172 -106 -59 -39 -133 -79 -170 -91 -73 -24 -107 -59 -88 -89 17
-28 54 -23 188 24 72 26 168 55 215 66 118 27 132 33 242 106 105 70 165 125
205 189 15 23 41 49 60 59 18 10 78 62 133 116 96 94 131 121 264 202 44 27
63 34 72 26 10 -8 7 -21 -14 -59 -22 -39 -36 -52 -72 -66 -66 -25 -117 -63
-193 -143 -119 -126 -175 -236 -191 -376 -9 -67 -25 -149 -42 -210 -15 -55
-22 -132 -25 -293 -1 -57 -8 -135 -15 -175 -15 -73 -40 -240 -48 -312 -6 -51
-21 -92 -50 -130 -32 -43 -37 -62 -20 -79 18 -18 48 -9 98 29 50 38 84 111
116 253 17 71 36 145 43 163 8 19 15 57 16 84 1 28 18 95 36 150 40 116 54
215 43 300 -7 54 -5 66 21 125 29 62 34 89 47 225 10 107 20 131 64 154 22 11
40 20 40 18 0 -1 -5 -18 -11 -37 -39 -131 -49 -223 -44 -425 2 -104 6 -206 9
-225 3 -19 8 -55 11 -80 3 -25 7 -52 10 -60 2 -8 7 -34 10 -58 8 -55 55 -219
85 -292 61 -154 178 -329 281 -424 30 -27 91 -84 136 -127 103 -98 107 -98
221 14 46 45 115 113 153 150 79 78 131 150 182 255 50 100 111 268 141 388
24 97 28 113 41 204 4 25 9 59 12 75 2 17 5 98 5 180 0 138 -14 267 -40 372
-6 21 -13 51 -16 66 l-7 29 40 -23 c23 -12 43 -30 45 -38 8 -29 16 -76 21
-131 14 -138 24 -179 57 -238 15 -28 17 -43 10 -95 -11 -89 4 -197 44 -312 19
-56 34 -119 34 -142 0 -23 9 -64 19 -91 11 -26 22 -64 25 -83 34 -219 132
-384 214 -362 34 8 32 27 -9 95 -21 35 -41 82 -44 103 -23 176 -35 264 -40
285 -18 86 -25 153 -29 295 -3 98 -11 181 -21 215 -15 55 -37 171 -49 264 -9
61 -65 186 -100 221 -14 14 -26 30 -26 35 0 6 -32 44 -71 85 -55 57 -90 84
-147 113 -60 29 -81 46 -104 81 -21 33 -25 48 -17 58 6 7 16 10 23 6 148 -87
204 -130 319 -240 70 -68 134 -123 142 -123 8 0 32 -26 54 -59 47 -68 113
-129 187 -172 30 -17 56 -34 59 -40 12 -19 68 -40 181 -70 94 -24 353 -107
374 -119 3 -2 15 2 28 9 46 24 13 77 -63 101 -63 20 -123 53 -220 122 -50 35
-111 72 -135 82 -38 15 -101 59 -146 101 -6 5 -30 27 -53 48 -24 22 -39 43
-35 47 5 5 39 11 76 13 57 4 75 1 120 -20 98 -46 170 -64 273 -68 74 -2 135
11 250 57 50 20 137 46 195 58 58 12 128 28 156 36 77 22 139 75 164 138 6 17
17 26 32 27 79 3 149 35 225 103 28 25 58 63 66 84 14 35 22 41 84 61 79 26
283 135 363 194 273 200 346 475 174 650 -44 45 -176 110 -253 126 -152 32
-392 31 -545 0 -99 -21 -305 -82 -571 -169 -434 -143 -482 -158 -645 -206 -85
-25 -175 -51 -200 -59 -70 -21 -275 -72 -385 -95 -55 -12 -107 -23 -116 -26
-13 -3 -23 12 -43 67 -15 40 -25 73 -24 74 2 2 27 20 56 40 82 56 152 118 198
177 11 14 38 35 59 46 77 39 118 98 169 240 50 139 59 148 182 178 77 19 104
37 104 69 0 43 -23 49 -161 48 -110 -1 -134 -4 -174 -23 -43 -21 -95 -74 -95
-97 0 -6 -14 -16 -30 -23 -65 -27 -116 -117 -119 -211 -1 -18 -30 -55 -109
-135 -59 -60 -119 -125 -134 -144 -26 -35 -26 -35 -47 -16 -28 25 -27 37 8 70
48 46 75 120 76 206 0 92 -18 132 -92 205 -33 32 -51 57 -48 66 3 8 35 36 71
62 35 26 91 82 124 125 140 180 154 190 300 230 134 37 178 65 187 121 11 68
-56 92 -159 57z m2022 -1025 c0 -4 -19 -13 -42 -20 -23 -7 -71 -27 -107 -43
-130 -60 -298 -113 -391 -123 -42 -5 -124 -16 -150 -20 -14 -3 -52 -7 -85 -10
-171 -17 -278 -32 -455 -65 -296 -55 -388 -70 -461 -76 -43 -4 -79 -4 -79 -1
0 16 617 181 800 213 14 3 41 9 60 14 41 11 466 95 525 105 82 12 241 34 270
37 44 4 115 -3 115 -11z m-5635 -6 c62 -5 86 -9 170 -25 28 -5 64 -12 80 -15
69 -11 402 -81 475 -100 30 -8 67 -16 83 -19 49 -9 400 -97 487 -122 47 -14
90 -26 95 -28 6 -1 37 -11 70 -21 57 -19 58 -20 26 -23 -27 -3 -227 24 -325
44 -42 8 -67 13 -124 23 -71 13 -94 17 -157 29 -27 6 -75 13 -105 17 -30 3
-62 8 -70 10 -8 3 -46 7 -85 10 -67 5 -89 8 -187 20 -157 20 -362 68 -434 101
-44 20 -108 47 -144 61 -99 36 -99 36 -55 43 42 6 98 5 200 -5z m-240 -65 c85
-27 277 -100 289 -110 14 -13 -65 -58 -129 -74 -42 -11 -109 -15 -225 -14 -91
0 -188 -3 -216 -6 -56 -8 -60 -6 -69 42 -11 66 36 126 135 172 54 24 111 22
215 -10z m6103 3 c93 -47 137 -121 112 -187 -10 -27 -10 -27 -87 -21 -43 3
-154 7 -248 9 -150 3 -176 5 -222 25 -28 13 -59 31 -68 41 -15 17 -11 20 67
52 46 19 117 45 158 58 41 12 93 29 115 36 63 21 112 17 173 -13z m-3392 -135
c11 -37 7 -71 -26 -199 -36 -139 -49 -204 -57 -274 -6 -58 -22 -84 -24 -39 -1
16 -2 34 -4 39 -1 6 -3 17 -4 25 -1 8 -5 21 -10 29 -8 12 -12 13 -26 1 -15
-12 -16 -9 -11 38 6 72 -1 94 -26 81 -19 -10 -19 -8 -13 23 8 37 66 191 88
235 8 15 27 41 42 55 31 31 58 25 71 -14z m570 -64 c36 -76 84 -207 84 -232 0
-11 -3 -12 -14 -3 -23 20 -36 -9 -30 -73 4 -48 2 -57 -9 -48 -28 24 -43 -7
-46 -97 -1 -48 -13 -31 -22 32 -15 108 -21 135 -55 269 -40 162 -43 209 -13
237 20 18 23 19 46 4 13 -9 39 -48 59 -89z m-2796 42 c47 -8 117 -18 155 -21
39 -4 81 -8 95 -10 29 -3 38 -32 20 -74 -16 -40 -100 -100 -168 -120 -51 -16
-64 -16 -111 -5 -44 12 -89 19 -147 23 -6 1 -11 19 -10 44 0 30 -7 53 -26 81
l-26 38 41 34 c30 24 49 32 67 29 14 -3 63 -11 110 -19z m5052 11 c7 -7 25
-21 40 -31 l27 -18 -26 -40 c-19 -28 -27 -53 -27 -84 0 -24 -2 -44 -5 -44 -23
-2 -96 -14 -148 -24 -56 -12 -67 -11 -126 9 -35 12 -78 32 -95 46 -32 25 -72
93 -72 121 0 22 3 23 170 43 25 3 79 12 120 19 99 18 126 19 142 3z m-4607
-62 c136 -18 206 -30 310 -51 66 -13 136 -27 155 -29 19 -3 49 -7 65 -10 17
-3 64 -8 105 -11 41 -3 93 -7 115 -9 22 -2 60 -4 84 -4 62 -1 48 -9 -29 -16
-36 -3 -79 -8 -96 -10 -145 -19 -321 -24 -464 -12 -47 4 -116 10 -155 14 -103
8 -174 9 -227 3 -41 -6 -46 -4 -38 10 5 9 16 22 24 29 16 13 32 74 27 99 -2
11 8 12 46 7 26 -3 62 -8 78 -10z m4133 -16 c-1 -29 20 -89 31 -89 3 0 11 -8
17 -17 10 -17 2 -18 -130 -18 -78 0 -184 -4 -236 -9 -147 -13 -409 -8 -555 11
-27 3 -58 6 -67 5 -10 0 -20 3 -23 9 -4 5 11 9 32 10 21 1 49 2 63 4 14 1 66
5 115 9 50 4 97 9 105 11 8 2 39 7 69 10 30 3 58 8 62 10 3 3 24 7 45 11 22 3
55 9 74 14 19 5 58 12 85 15 28 4 59 9 70 10 11 2 58 8 105 15 47 6 86 13 87
14 1 1 13 2 27 2 20 0 24 -5 24 -27z m-4812 -24 c9 -13 18 -42 21 -64 6 -47
-3 -54 -97 -71 -36 -6 -111 -23 -168 -37 -56 -14 -113 -22 -126 -19 -26 6
-181 159 -181 178 0 16 16 17 185 17 202 -1 244 1 276 11 51 15 73 11 90 -15z
m5677 9 c125 -2 234 -7 242 -11 11 -6 -1 -24 -48 -74 -101 -106 -133 -128
-170 -119 -83 21 -258 60 -293 66 -21 3 -45 11 -53 17 -17 14 -9 75 15 111 15
24 22 27 48 21 17 -4 134 -9 259 -11z m-3723 -147 c27 -9 37 -16 25 -17 -11
-1 -29 -3 -40 -5 -11 -2 -47 -7 -80 -11 -33 -3 -69 -8 -80 -10 -11 -2 -36 -6
-55 -9 -46 -6 -107 -16 -134 -21 -11 -3 -43 -9 -69 -14 -27 -5 -52 -12 -55
-14 -4 -2 -66 -18 -137 -35 -72 -17 -191 -47 -265 -67 -74 -19 -142 -37 -151
-39 -9 -2 -33 -8 -53 -13 -20 -6 -36 -7 -36 -3 0 13 72 115 98 139 43 38 142
81 223 96 76 14 142 21 314 32 55 4 102 8 104 10 2 2 81 2 175 0 121 -2 184
-8 216 -19z m1960 9 c19 -3 69 -7 110 -10 260 -20 321 -37 419 -122 39 -34
101 -116 101 -135 0 -4 -42 4 -92 18 -51 13 -101 26 -110 28 -9 2 -50 13 -90
24 -212 60 -570 136 -688 147 -19 1 -48 5 -65 8 -16 3 -52 8 -80 11 -63 8 -67
12 -19 20 22 4 53 11 69 15 30 8 379 5 445 -4z m-3110 -14 c19 -7 11 -11 -46
-27 -83 -22 -170 -64 -284 -139 l-85 -56 -120 0 c-66 -1 -140 -4 -163 -7 -41
-5 -43 -4 -33 15 14 27 71 79 122 114 75 50 211 93 332 104 40 3 73 7 75 9 6
5 182 -6 202 -13z m4190 -22 c108 -31 209 -83 263 -135 74 -71 72 -72 -115
-67 -176 4 -160 0 -274 76 -61 41 -199 105 -275 127 -39 12 -41 14 -18 20 13
4 96 6 184 4 128 -2 175 -7 235 -25z m-4789 -5 c5 -4 -10 -20 -35 -36 -40 -27
-79 -65 -147 -147 -26 -31 -27 -31 -70 -18 -84 26 -267 121 -255 133 5 5 100
31 141 38 17 3 48 11 70 17 22 6 56 13 75 15 19 3 36 6 38 8 5 5 173 -4 183
-10z m5195 1 c61 -12 251 -60 263 -66 26 -14 -135 -102 -247 -134 l-52 -15
-34 53 c-36 56 -86 101 -151 134 l-40 20 50 7 c28 4 55 8 60 10 11 3 120 -3
151 -9z m-4436 -7 c0 -5 -4 -9 -10 -9 -22 0 -148 -138 -160 -176 -18 -54 -22
-58 -90 -79 -59 -18 -63 -18 -113 0 -29 10 -74 29 -100 41 l-49 22 59 38 c121
77 240 128 366 157 75 17 97 18 97 6z m3608 -25 c46 -14 120 -43 164 -65 82
-40 192 -109 185 -115 -9 -9 -180 -74 -195 -74 -9 0 -42 8 -74 17 -52 16 -59
21 -69 53 -19 56 -67 118 -130 167 -32 26 -59 47 -59 48 0 8 109 -11 178 -31z
m-2500 -20 c2 -40 1 -40 -198 -60 -61 -7 -254 -43 -315 -59 -206 -56 -298
-101 -505 -246 -47 -32 -88 -59 -92 -59 -3 0 0 19 7 43 7 23 16 69 19 102 10
84 22 98 102 118 38 9 130 32 204 52 156 40 335 81 400 90 24 4 48 8 51 11 4
2 33 6 65 10 32 3 61 7 64 9 3 2 40 7 81 11 40 3 75 7 76 8 1 1 11 2 21 3 15
1 19 -6 20 -33z m1442 10 c134 -19 262 -45 470 -96 91 -21 172 -41 180 -43 37
-8 167 -44 182 -50 24 -10 27 -20 43 -149 3 -27 11 -58 16 -68 6 -11 9 -22 6
-24 -2 -2 -75 43 -162 101 -216 143 -368 201 -640 244 -118 18 -245 34 -288
35 -17 0 -27 23 -25 59 1 20 24 19 218 -9z m-1438 -126 c3 -37 1 -41 -32 -58
-49 -25 -174 -115 -315 -228 -66 -53 -138 -110 -160 -128 -48 -38 -136 -94
-147 -94 -5 0 4 14 19 31 42 46 70 104 104 213 48 155 91 207 200 245 69 23
229 54 301 58 23 1 26 -2 30 -39z m1448 10 c192 -41 238 -85 310 -298 37 -111
59 -155 94 -192 14 -15 26 -30 26 -33 0 -16 -197 126 -360 261 -131 108 -242
187 -281 199 -15 5 -19 16 -19 50 l0 44 68 -5 c37 -3 110 -15 162 -26z m-1953
-95 c-18 -27 -52 -108 -76 -181 -38 -115 -50 -140 -88 -180 l-43 -47 7 40 c11
65 6 185 -11 258 -9 38 -14 72 -11 76 8 14 201 79 237 80 13 1 10 -8 -15 -46z
m2325 16 c81 -26 128 -48 128 -59 0 -5 -7 -39 -16 -77 -16 -72 -21 -188 -9
-241 8 -39 0 -40 -32 -4 -43 49 -64 90 -89 178 -28 96 -53 151 -92 203 l-25
34 36 -7 c20 -4 64 -16 99 -27z m1400 -17 l29 -7 -34 -45 c-44 -57 -99 -96
-179 -125 -68 -24 -110 -25 -137 -2 -9 8 -56 37 -105 65 l-88 50 44 20 c149
65 324 82 470 44z m-4807 -21 c44 -18 83 -36 88 -40 4 -4 -21 -22 -55 -39 -35
-17 -87 -47 -116 -66 -63 -41 -97 -40 -187 5 -65 31 -105 65 -149 121 l-27 37
43 9 c24 5 106 8 183 8 134 -2 144 -3 220 -35z m472 7 c-3 -13 -11 -52 -17
-88 -21 -120 -50 -160 -148 -209 -95 -47 -160 -63 -252 -63 -69 1 -104 14
-126 47 -26 40 -22 81 11 115 55 57 225 130 485 208 51 15 53 14 47 -10z
m3518 2 c211 -51 446 -163 484 -232 14 -24 14 -30 -1 -62 -45 -94 -198 -96
-386 -4 -113 56 -128 82 -165 285 -5 23 -3 31 6 29 7 -2 35 -9 62 -16z m-2392
-47 c-62 -98 -200 -289 -236 -326 -23 -24 -62 -57 -86 -72 -40 -27 -44 -28
-56 -12 -17 24 -9 81 23 146 47 97 224 259 332 305 43 18 51 3 23 -41z m1285
4 c80 -52 208 -175 246 -236 28 -43 53 -115 50 -138 -1 -7 -2 -22 -3 -33 -2
-28 -19 -25 -77 14 -53 36 -117 114 -239 289 -106 154 -100 183 23 104z
m-2052 -83 c11 -53 15 -98 11 -148 -6 -72 -15 -127 -22 -134 -2 -2 -30 12 -62
32 -98 60 -155 77 -256 77 l-90 0 69 44 c38 24 123 80 189 124 66 44 125 81
132 81 6 0 19 -33 29 -76z m2955 -46 c104 -68 189 -127 189 -131 0 -5 -4 -5
-10 -2 -5 3 -45 6 -87 7 -89 0 -150 -19 -246 -78 -32 -20 -60 -34 -61 -33 -2
2 -8 24 -14 49 -20 81 2 310 30 310 5 0 95 -55 199 -122z m-2609 -189 c-11
-46 -12 -69 -4 -95 9 -31 8 -35 -11 -39 -59 -15 -179 -7 -199 13 -5 5 41 44
102 87 61 43 113 82 116 87 12 19 11 5 -4 -53z m2191 -66 c37 -26 64 -50 59
-55 -20 -20 -139 -29 -196 -14 -23 6 -24 8 -14 37 10 29 7 77 -8 129 -7 23 -5
22 42 -13 27 -21 80 -59 117 -84z m-2696 48 c29 -13 74 -38 99 -56 l46 -33
-33 -8 c-133 -30 -303 -15 -415 38 -68 31 -73 45 -23 58 130 35 247 36 326 1z
m3351 9 c36 -7 61 -17 60 -24 -6 -18 -131 -75 -189 -86 -110 -22 -309 -9 -309
19 0 12 103 70 160 90 64 21 179 22 278 1z m-2158 -75 c0 -30 24 -33 52 -8 17
15 18 14 18 -15 0 -44 19 -51 47 -16 l23 29 0 -32 c0 -26 4 -33 20 -33 10 0
25 10 32 23 l12 22 6 -24 c8 -35 26 -37 43 -5 l14 28 21 -48 c28 -61 54 -60
88 3 l23 44 12 -27 c15 -33 37 -34 45 -1 6 26 7 26 21 5 8 -11 20 -20 28 -20
16 0 29 34 20 52 -4 7 5 0 19 -16 21 -26 27 -28 41 -16 10 8 15 23 12 37 -5
26 5 30 23 8 19 -23 37 -18 48 13 l9 27 25 -50 c38 -74 52 -128 44 -170 l-7
-38 -34 33 c-24 24 -38 30 -54 25 -12 -3 -22 -12 -22 -18 -1 -7 -3 -25 -4 -42
-2 -16 -3 -31 -4 -33 -1 -1 -12 5 -26 14 -20 13 -28 14 -40 4 -8 -6 -14 -15
-13 -18 0 -4 0 -20 -1 -37 l-2 -30 -17 25 c-34 49 -52 62 -68 49 -8 -6 -14
-19 -14 -29 0 -31 -13 -30 -40 2 l-27 33 -21 -35 -21 -34 -10 27 c-15 38 -46
35 -67 -5 l-17 -33 -10 35 c-5 19 -14 38 -20 42 -14 8 -54 -27 -63 -55 -8 -26
-24 -3 -24 36 0 34 -24 45 -49 23 -26 -23 -31 -20 -31 18 0 73 -31 87 -77 36
-29 -33 -39 -37 -41 -17 -1 6 -3 26 -5 42 -4 33 11 85 45 152 24 48 38 55 38
18z m-40 -760 c16 -19 33 -7 50 36 l13 30 18 -30 c9 -16 22 -32 28 -35 14 -9
51 29 51 52 0 13 6 10 25 -13 l25 -30 19 22 19 23 11 -31 c9 -26 15 -31 35
-27 19 4 26 0 30 -18 13 -50 81 -51 88 -2 2 18 8 22 29 20 22 -3 29 2 38 29
l11 31 17 -21 c19 -22 33 -18 50 12 9 17 12 15 31 -17 19 -32 24 -35 42 -26
12 6 26 23 31 38 10 26 11 26 21 7 30 -57 39 -66 53 -55 7 6 17 30 20 52 l7
41 13 -30 c13 -31 40 -49 50 -33 4 6 11 10 17 10 12 0 3 -123 -11 -148 -7 -12
-12 -9 -25 17 -22 42 -37 36 -56 -22 -11 -35 -18 -44 -29 -38 -8 5 -20 7 -27
4 -7 -2 -20 9 -29 26 -26 51 -44 39 -49 -31 -3 -37 -6 -43 -27 -43 -16 0 -25
-7 -29 -24 -5 -22 -6 -22 -19 -7 -10 11 -23 15 -38 11 -20 -5 -24 0 -34 39
-21 85 -65 59 -68 -41 -1 -18 -7 -23 -30 -23 -31 0 -41 14 -41 56 0 14 -5 34
-10 45 -17 30 -47 8 -55 -41 -6 -35 -10 -40 -27 -34 -12 3 -27 -1 -38 -11 -16
-15 -18 -14 -24 10 -5 18 -13 25 -30 25 -20 0 -23 4 -21 33 4 46 -11 70 -35
57 -10 -5 -22 -19 -25 -31 -4 -13 -12 -18 -22 -15 -9 4 -22 1 -29 -5 -10 -8
-14 -5 -19 18 -10 44 -24 73 -35 73 -6 0 -20 -17 -32 -37 l-22 -37 -7 35 c-4
18 -9 58 -12 87 -4 46 -3 52 12 47 30 -12 34 -10 55 21 l21 31 6 -33 c3 -18
12 -40 19 -49z m66 -575 c4 0 15 7 25 16 17 15 19 15 34 0 21 -21 27 -20 53 4
12 12 22 17 22 12 0 -18 41 -61 54 -56 7 3 19 17 25 31 l12 26 15 -21 c12 -17
25 -21 69 -21 45 1 55 4 61 21 6 20 7 20 29 -6 28 -33 38 -33 63 1 19 26 21
27 39 11 16 -15 22 -15 43 -4 21 10 29 10 48 -2 21 -13 25 -13 46 7 23 22 25
22 50 6 31 -21 31 -25 6 -106 -27 -88 -34 -97 -55 -76 -27 28 -52 21 -66 -17
-11 -31 -16 -34 -40 -29 -24 4 -30 1 -40 -21 -7 -14 -16 -26 -20 -26 -22 0
-59 21 -59 34 0 7 -8 24 -19 37 l-19 23 -20 -32 c-15 -25 -21 -29 -25 -18 -7
18 -38 21 -54 5 -8 -8 -13 -6 -17 9 -4 11 -13 23 -21 26 -15 5 -45 -29 -45
-51 0 -8 -12 -18 -27 -24 -24 -9 -29 -7 -51 21 -19 24 -27 28 -42 20 -15 -8
-20 -4 -30 20 -15 37 -55 50 -74 25 -18 -24 -30 -5 -55 85 -15 52 -18 76 -10
79 6 2 19 11 28 20 15 16 17 16 38 -6 12 -13 25 -23 29 -23z"/>
</g>
</svg>
