<?xml version="1.0" encoding="utf-8"?>
<!-- Generator: Adobe Illustrator 23.0.2, SVG Export Plug-In . SVG Version: 6.00 Build 0)  -->
<svg version="1.1" id="Layer_1" xmlns="http://www.w3.org/2000/svg" xmlns:xlink="http://www.w3.org/1999/xlink" x="0px" y="0px" fill="#d99c32"
	 viewBox="0 0 500 500" style="enable-background:new 0 0 500 500;" xml:space="preserve">
<path d="M282.6,245.9c-2.5,1.7-2.8,0.1,2.2,8.2c0.9,1.4,5.6,0.8,12.8,7.4c0.8,0.8,6.4,5.9,8.1,9.5c0.5,1,2.3,2.4,3,3.5
	c8.8,13.2,4.9,19.1,9.1,31.5c2.6,7.7,1.9,19.4,2.1,25.9c0.1,5.7,1.7,10.8,2.5,15.7c1,6,1.4,13.3,2.5,18.4c1.1,5.2,4.2,7.5,4.9,8.9
	c3.5,6.8-12,8.6-16.5-21.4c-1.1-7.2-3.8-8.4-3.2-13.1c0.8-5.6-3.8-8.3-5.6-22.2c-1.6-12,1.7-13.1,0-15.7c-3.9-5.9-3.8-8.9-4.6-15.8
	c-1.7-14.6-0.5-12.2-7.9-15.9c0,2,15.5,40.5-9.7,94c-3.9,8.2-10.1,16.5-19.6,24.1c-9.1,7.3-10.6,16.9-19.5,5.8
	c-5.5-6.9-32.6-19.9-38.5-74.3c-5.1-47.8,8.6-52.6,1.1-48.5c-4.4,2.4-4.4-0.5-6.1,18.6c-0.9,10-5.6,10.9-4.5,15.3
	c2.2,8.7-0.9,21.1-4.6,29.2c-2.1,4.6,0.8,5.9-1.8,11.3c-4.2,8.7-2.1,27.2-15.9,32.5c-2.4,0.9-4-1.5-2.9-3.6c1-1.9,4.7-4.4,5.5-11.8
	c0.7-6.3,1.3-12.8,3-20.6c3-13.5,0.3-14.6,2.3-31c0.7-5.5,2.3-5.2,4.2-21.2c1.1-9.3,6.3-17.7,13.5-25.3
	c11.1-11.9,15.4-8.9,17.1-11.7c4.4-7.7,4.6-5.9,1.8-7.8c-14.6,9.2-14,7.1-26.4,20.4c-4.9,5.2-8.5,5.6-9.2,7
	c-5.9,11.2-16.3,15.2-18.5,17.3c-4.2,3.8-9.2,4.5-18.4,6.7c-11.2,2.7-20.5,8.5-24.1,6.7c-3.3-1.7-0.9-5.3,2.6-6.5
	c5.1-1.7,7.4-2.2,11.4-5.1c27.2-19,11.5-3.7,31.6-22.1c3.3-3.1,4.6-1.9-8.4-3.4c-2-0.2-5.5,4.4-16.4,6c-22.8,3.4-22-5.9-38.6-7.3
	c-6.1-0.5-14-2.7-19.1-6.4c-7.4-5.4-2.9-7.6-6.9-7.9c-7.9-0.7-14-4.6-19.1-10.7c-3.4-4-1.6-5.5-3.2-5.8c-16.6-4-40.1-19.6-48-37.1
	c-7.2-16,6.1-46.7,70.1-32.1c10.9,2.5,81.9,29.1,130.4,38.5c6.3-18.9,4.8-2.6-16.4-27.8c-1.5-1.8-4.1-0.6-8.5-5.8
	c-7-8.2-5.4-20.9-15-24.4c-2.9-1-12.5-1.4-11.8-5.9c0.4-3,3.6-3.9,6.4-3.5c8.2,1.1,18.8-3,24.7,9c1.3,2.6,9.7,1.3,10.8,18.4
	c0.1,2,8.8,7,19,20.8c4-4.5,3.7-3.5,2.4-4.7c-5.1-4.5-7.2-10.3-7.3-17c-0.1-8.6,5.2-13.4,11.4-18.2c-7.2-5.9-12-8.8-17.7-17
	c-3.9-5.7-6.2-9.7-12.9-11.7c-10.5-3.2-17.3-3.7-19.2-9.9c-2.2-7.2,10.4-9.8,26.8,5.1c4.1,3.7,6.3,8.4,9.2,12.8
	c2.8,4.1,4.6,5.5,16.1,16.2c4.1,3.8-0.8,0.2,17.4-3.7c11.6-2.5,12.2-0.1,18.3,0.8c4.6,0.7,7.9,2.6,11.6,4.6
	c25.4-19.5,20.5-31.3,41.5-40c14.9-6.1,16.3,5.9,7.9,9.6c-10.6,4.6-17.9,2.8-24.1,11.8c-11.2,16.3-12.9,14.2-20.7,21.4
	c9.7,7.4,14.6,14.5,9.3,28.3c-1.3,3.4-3.9,5.7-6.2,7.8c1.1,1.3,2.3,2.5,3.4,3.8c7.6-10.6,18.8-19.2,18.9-20.5
	c1.5-17.8,9.9-16.3,10.7-18.2c2.8-6.9,8.9-9.5,16.4-9.2c11,0.4,7.3-0.6,11.6,0.1c3.1,0.5,4.7,4.1,1.7,6.3c-4.6,3.3-13.8,0.6-17,9.1
	c-3.8,10-6.1,20.5-15.5,23.2c-2,0.6-4.7,8.1-20.1,17.5c-1.4,0.8-1.4-0.7,2.5,11.2c60.8-12,118.2-37.6,143.3-40.7
	c71.6-8.8,72.6,39.6,31.1,61.6c-7.8,4.1-12.7,7.6-22,9.8c-2.2,0.5,1.9,2.5-7.6,10.4c-6.2,5.2-11.4,5.8-16.2,6.3
	c-6,16.2-20.5,9.8-41,19.5c-8.2,3.8-21.6,4.8-37-3.7c-0.9-0.5-12.7,0.5-11.8,1.3c21.3,19.6,13.4,10,22.7,16.4
	c10.1,7,13.4,10.1,21.6,12.4c7.4,2.1,5.2,8.5,0.2,6.9c-11.9-3.7-14.7-5.4-21.3-7c-9.4-2.2-14.6-3.1-18.6-7.1
	c-0.9-0.9-2.9-1.1-10.2-6.9c-5.8-4.7-6.9-9.9-9-10.9c-5.9-3-7.4-5.5-14.6-12.6C297.6,254.5,295.3,253.6,282.6,245.9z M263.1,332.5
	c0.9-3.4,1.1-5.3,4.3-3.2c0-8.8,1.1-10.9,5.2-3.2c1.8-1.6,1.8-1,3.8,0.8c2.3-17.2,6.1,0.5,6.7-3.4c3.2-20.5,0-6.1-3.5-11.7
	c-0.5-0.7-1.2-2.7-1.6-3.8c-1.4,14.7-5.3,3.6-6.5,1.5c-1.6,6.1-4.2,5.8-5.5,3.9c-2.4-3.6-1.3-5.3-2.3-2.8c-1.4,3.4-3.3,3.3-4.3,1.4
	c0,0-0.5-1.3-0.9-2.1c-0.4,0.9-0.7,7.9-5,4.1c-0.1,0.6-0.3,1.9-1.1,3.8c-0.6,1.5-4.5,2.5-5.5-1.4c-0.3-1.2,0-0.3-0.6-2.5
	c-1.2,1.9-2.7,1.7-3.6,0.3c-2.4-3.7,0.2-6.8-2.2-2.2c-0.9,1.7-2.6,1.8-3.6,0.2c-2.3-3.7-0.1-3.7-2.8,0.9c-1.1,1.9-3,2-4.2,0.2
	c-2.7-4-0.2-6.3-3.4,0.5c-0.8,1.8-3.9,4-4.6-5.4c-0.6,0.7-1.2,2.7-2,3.7c-3.4,4.5-6.4-7.9-3.6,10c1,6.3,1.5-2.8,4.5-2.6
	c2,0.2,1.8,2.8,2.6,7.3c1.8-1.6,2.1-2.4,3.8-0.7c1.6-3,2.2-4.8,3.9-4.4c3.1,0.6,0.1,8.5,2.1,7.1c1.9-1.3,2.6,0.1,3.2,2.1
	c0.9,3.1,0.6-0.2,2.6-0.8c2.9-0.9,2.3,3.5,3.3-1.1c0.3-1.5,0.5-3.2,1.3-4.4c1-1.5,3-1,3.4,2c0.7,4.7-0.9,6.2,5.2,5.2
	c0.3-2.6,0.1-5,1.1-7c0.8-1.5,2.8-1.4,3.5,1.3c0.7,2.7,0.3,2.1,1.3,5.1C261.3,328.6,261.8,331.1,263.1,332.5z M274.3,257.9
	c-0.7,5.4-1.3,6.1-5.2,1.6c0,1.1,0.1,3.3-0.3,4.3c-0.5,1.3-1.7,1.5-2.6,0.5c-0.4-0.5-0.7-1-1-1.5c-2.7-4.2,0.4,2.3-2.4,3.1
	c-1.5,0.4-2.1-1.2-2.9-2.5c-1.1-1.8-0.4-1.1-1,1.9c-0.2,1.2-1.9,1.6-2.6,0.3c-3.8-6.9-1-2.1-2.8-0.1c-1.1,1.2-0.8,1.9-1.5,3
	c-0.9,1.3-2.7,1.3-3.7,0c-0.3-0.5-0.5-1-0.7-1.5c-0.9-2-1.5-1.6-1.5-3.6c0-3.4-1.1,0.9-2.2,2.3c-0.9,1.2-2.5,1-2.7-1.6
	c-0.2-2.1,0.4-2.7-0.7-0.8c-0.8,1.4-1.4,3-2.9,2.6c-2.7-0.7-0.2-7-2.1-3.9c-1,1.6-1.5,3.2-2.9,2.9c-2.7-0.6-0.2-7-2-4.7
	c-3.1,3.8-4.5,2.4-4.5-2.4c-2.2,2.6-4.8,7.8-5.7,13c-0.5,2.5,0.1,2,0.6,4.8c0.4,2.4-0.2,1.6,1.7-0.4c5.9-6.1,6.6-2.8,6.7,3.8
	c0,3.4,5.2-8.5,6,3.5c0.2,3.5,1.5-1.7,4-3.8c1.3-1.1,2.8-1,3.3,2.5c0.5,3.1,0.2,3.2,1.2,1.6c1.9-3,2.4-4.7,4.3-3.4
	c2,1.4,0.7,2.7,2.2,4.1c2.3-8.2,4.4-3.5,6.7,0.1c1-2.7,0.3-5,2.3-5.4c1.8-0.4,2.5,1.4,4.9,5c1.9,2.9-0.7-8.7,4-5.6
	c3.9,2.5,2.2,5,2.8-1.7c0.3-3.6,2.1-4.2,3.8-3.4c1.2,0.6,1.5,1.2,3.5,3.5c1.8,2.1,0.2,0.9,1.5-2C281.3,270.4,276.7,261,274.3,257.9z
	 M275.4,368.3c2-4.5,3.4-8.9,4.1-13.3c-6.7-2.8-1.7-4.2-6-0.2c-2,1.8-3.5-0.2-4.6-1.5c-2,2.2-3.3,3.2-5.7,0.4
	c-1.9-2.3-2.6,9.2-7.2,0.1c-1.1-2.2-0.7,3.5-3.2,2.6c-3-1.1-6.4,1.5-7.6-1.6c-0.8-2.2-0.3-2.5-1.3-0.3c-1.8,3.7-3.4,5-6.2-1.5
	c-2.6,2.8-3.5,3.8-6.3,0.4c-2.9,3.6-4.1,2.6-6.7-1.2c-1,1.4-1.9,2.9-3.8,2.6c0,3.1,2.7,11.9,4.1,13.4c0.5-0.6,0.9-1.2,1.4-1.7
	c1.6-1.5,3.7-1,4.7,1c0.4,0.8,0.8,2.9,1,3.6c0.9,0.3,2-4.5,5.3,1.5c1.7,3,1.1-0.9,4,0.5c0.4-1.1,1.2-3.2,1.6-4.2
	c0.8-1.8,2.8-2,3.6,0.2c1.7,4.9,0,0,3.5,0c1.6,0,1.9,1.2,2.7,2.2c2.4-6.8,3.7-4.1,6,1.9c2.9-1.4,2.4,2.4,4-0.4
	c0.5-0.8,1.7-4.6,4.3-2.4c1.4,1.1,0.9,1.5,1.4-0.5C269.6,365.3,272,363.8,275.4,368.3z M39.7,175.5c13.9,4.1,18.5,8.5,25.9,10
	c33.8,7.1,31.7,3.8,55.2,8.3c120.2,23-35.5-16.6-66.7-18.9C49.2,174.5,44.5,174.5,39.7,175.5z M460.5,175.4
	c-0.9-10.4-220.2,44.9-80.5,18.2c21.2-4,45.9-3,66.2-12.7C456,176.2,459.3,175.7,460.5,175.4z M372.9,227.2c0,1.4,0.7,1.1,1.3,7.1
	c0.4,4.7,2.7,11.2,6.7,13.5c29,16.3,37-0.2,30.4-4.9C402.7,236.8,392.5,231.5,372.9,227.2z M127.4,227.1
	c-9.5,2.5-34.3,9.2-40.1,17.4c-1.7,2.4,0,9.1,5.9,9.8c8.4,1,16.9-0.7,26.1-6.7C126.5,243.1,125.3,232.4,127.4,227.1z M117,226.3
	c18-4.5,45.9-12.2,58.3-14.3c11.3-1.9,23.7-3.1,26.5-3.7c-11.1-3.2-18.4-3.3-41.8-1.4C143.6,208.2,124.5,207.5,117,226.3z
	 M382.9,226.2c0.8-0.9-7.3-16-24.1-17.6c-10-1-42.1-4.1-51.9-2.3c-13.3,2.5-10,1.7,3.1,3.6C343.5,214.5,364,221.8,382.9,226.2z
	 M341.6,258.9c-1-2.6-4.7-0.8-10.5-19.8c-3.9-13-8.7-18.3-37.3-20.5c-1,10.5-2.5,1.7,13.9,15C317.8,241.8,327.6,250.9,341.6,258.9z
	 M206.2,218.6c-3.5,0-25.9,2.6-31.2,8.6c-3.6,4.1-5.5,9.1-6.7,14.3c-2.8,11.6-8.3,15.3-9.6,16.9c7.5-1.5,35.7-28.7,47-33.4
	C207.2,224.5,206.9,225.5,206.2,218.6z M206.3,210.9c-28.5,2.2-53,9.6-74,14.9c-5.1,1.3-1.8,8.5-5.7,17.2
	c-1.8,4,16.6-11.9,26.9-15.9c17.1-6.6,30.7-8.9,51.2-10.9C206.7,215.9,206.3,216.9,206.3,210.9z M293.9,215.9
	c5.9,1.2,43.5,1.9,65.9,18.8c3.6,2.7,12.1,8.2,14.1,9.3c-0.5-1.6-2.4-5-2.5-10c-0.2-8.9-3.3-8.3-5-8.7
	c-14.6-3.7-47.7-13.1-72.8-14.5C293.8,212.7,293.9,214.3,293.9,215.9z M16.5,195.3c1.2,0.2,2.8-1.5,15.1-1.2
	c15.1,0.3,21.2,0.8,28.8-4.8c2-1.5,1.4-1.3,0.7-1.6c-8-3.1-28.1-11.9-34.1-9.3C18.5,181.9,12.2,187.1,16.5,195.3z M483.6,195.3
	c4.4-8.7-3-14.6-12.1-17.5c-4.1-1.3-33.7,9.5-32.9,10.5C446.9,198.2,467.2,191.8,483.6,195.3z M405.5,193.3c-2,6.2,6,11.9,8.7,12.7
	c13.9,4.2,1.9,1.9,23-0.3c-1.4-4.9,0.3-8,3.7-11.8C428.6,187,446.4,188.4,405.5,193.3z M62.9,205.8c20.6,1.1,7.6,4.9,22.9,0.3
	c1.6-0.5,5.4-3.8,6.4-4.6c2.2-2,3.6-5,2.3-8.2c-44.5-3.4-20.1-8-35.3,0.7C62.4,197.9,64.4,200.7,62.9,205.8z M170.3,203.5
	c0.1-0.9-21-1-34.7-3.9c-20.2-4.2-18.3-3.6-37.1-6c-2-0.3,2.8,3.2-5.2,11c4.5-0.3,8.6-1.2,20.7,0
	C144.9,207.6,141.4,205.8,170.3,203.5z M329.8,203.3c0,0.1,28.5,4.5,53.7,1.7c15.1-1.7,20.4-0.3,23.3-0.3c-9-7.8-2.2-11.3-5.6-10.9
	C352,199.9,379.7,199.6,329.8,203.3z M482.1,197.8c-1.6-1.5-20.4-0.6-24.9-0.5c-11.9,0.2-12.7-3.1-14.3-1.3
	c-1.9,2.1-4.1,6.5-2.4,9.2c0.9,1.4,1.5,0.9,5.3,1.7c23.1,5.2,21.7,5.3,22.8,4.5C475.5,206.1,481.4,199.1,482.1,197.8z M17.9,197.6
	c1.5,2.4,7,8.7,13.2,13.4c2.4,1.9,3.3-0.8,26.5-4.7c5.4-0.9,0.7-11.7-2-10.7C44.9,199.2,33.6,195.7,17.9,197.6z M382.7,208
	c31.6,9.8,23.7,15.9,36,15.6c18.3-0.4,17.1,1.4,18.9,0.9C436.3,217,416,203.1,382.7,208z M117.6,208c-6.8-2.2-42.3-3.5-54.7,15.7
	c-1.1,1.6-0.5,0.7,3.8,0.3c15.8-1.5,17.4,1,20.8-1.3C106.6,209.6,106.1,211.9,117.6,208z M61.4,227.9c7.5,12.6,21.4,15.8,24.5,12.8
	c4-3.8,15.4-8.1,13.9-8.7c-8.7-3.6-11.7-5.1-16.1-5.4C76.2,226,66.3,226.7,61.4,227.9z M399.6,232.2c18.7,9.9,14.8,10.3,18.9,9.6
	c8.4-1.4,15.8-5.9,20.1-13.9C417.1,223.6,409.8,228.2,399.6,232.2z M151.1,231.6c-3.6,1.4-25.6,17.4-29.1,18.6
	c9.8,0,13.9-3.2,29.9,8.2C155.2,244.3,153.1,239.6,151.1,231.6z M378.1,250.4c-0.1-0.1-27.2-18-29.1-18.8
	c-1.3,4.8-4.6,13.4-0.8,26.7C362.7,248.4,366.3,249.3,378.1,250.4z M410.3,224.8c-19.3-15-39.5-15.9-38-14.8
	c6.1,4.3,12.4,8.8,13.8,17.2C399.6,231.5,392.1,231.4,410.3,224.8z M89.8,224.7c0.2,0.1,13.9,5.9,15.2,5.5c9.2-3.1,9-2.9,9.1-3.7
	c0.6-6.8,8.2-13,13.9-16.8C125.9,209,108,210.9,89.8,224.7z M180.6,262.5c9.9-4.4,14.1-11.8,27.3-31.2
	C216.3,218.9,172.9,246.5,180.6,262.5z M319.5,262.5c6-12.6-20-32.5-27-34.4c-0.6,1.8-1.1,2.3-0.2,3.5
	C304.5,247.8,307.9,257.7,319.5,262.5z M58.8,224.8c10.5-17,20.3-13.9,12.5-15.3c-10.4-1.9-14.3-0.1-34.6,4.6
	C33.9,214.7,52.9,224.8,58.8,224.8z M441.3,224.9c7.2-1.4,17.4-5.9,22.8-10.5c-1-0.5-17.7-4.3-18.2-4.4c-8.8-2-12-1.1-19-0.2
	C422.4,210.4,434.5,211.1,441.3,224.9z M227.3,229c2.9-28,11-36,5.3-41.6c-4.6-4.6-12.2,17.6-13.4,23.1c-0.4,1.6,0,0.8,1.1,0.2
	c3.8-2.2,2,6.1,1.7,9.9C227.3,214.1,225.2,225.9,227.3,229z M277.8,220.4c0.4-1.5-2.5-12.3,2-9.6c1.4,0.9,1.4,1.4,1.1,0.1
	c-1.3-6.1-8.9-27.9-13.3-23.6c-3,2.9-2.5,6.2-0.3,14.1c6.9,24.3,4.9,36.9,6.7,20.8C274.4,218.9,275.4,217.4,277.8,220.4z
	 M344.6,256.7c-3-12.2-0.2-19.7,1.5-26.7c-9.2-3.9-19.8-6.7-19.1-5.8C339.6,239.5,330.9,244.3,344.6,256.7z M155.6,256.9
	c7.1-5.9,7.7-10.5,10.1-18.5c3.4-11.4,7.1-13,7.5-14.5c-6.6,1.4-12.9,3.4-19.1,6.1C156.3,239.9,158.2,243.6,155.6,256.9z M348.6,262
	c11.6,3.3,26.5,2.7,37-5.4c-1.4-0.9-9.5-3-16.4-3C360.2,253.5,351.1,259.3,348.6,262z M114.6,256.5c1.2,2.8,17.6,11,37,5.5
	C139.5,252.9,133.2,251.4,114.6,256.5z M178.5,250.2c-0.5-0.5,1.5-0.5-17.5,12.5c3.5,2.2,13.1,2.6,16.7,0.8
	C177.5,261.5,174.5,261.3,178.5,250.2z M322.4,263.5c3.9,1.9,13.4,1.4,16.8-0.9c-6.3-3.6-11.9-8-17.5-12.6
	C321.9,253.4,325.7,255.6,322.4,263.5z"/>
</svg>
